<svg width="61" height="60" viewBox="0 0 61 60" fill="none" xmlns="http://www.w3.org/2000/svg">
<path d="M5.5 17.5V52.5C5.5 53.163 5.76339 53.7989 6.23223 54.2678C6.70107 54.7366 7.33696 55 8 55H33V15H8C7.33696 15 6.70107 15.2634 6.23223 15.7322C5.76339 16.2011 5.5 16.837 5.5 17.5ZM13 22.5H25.5V27.5H13V22.5ZM13 32.5H25.5V37.5H13V32.5ZM13 42.5H25.5V47.5H13V42.5ZM55.5 7.5V52.5C55.5 53.163 55.2366 53.7989 54.7678 54.2678C54.2989 54.7366 53.663 55 53 55H38V10H25.5V7.5C25.5 6.83696 25.7634 6.20107 26.2322 5.73223C26.7011 5.26339 27.337 5 28 5H53C53.663 5 54.2989 5.26339 54.7678 5.73223C55.2366 6.20107 55.5 6.83696 55.5 7.5Z" fill="url(#paint0_linear_1_7010)"/>
<defs>
<linearGradient id="paint0_linear_1_7010" x1="5.5" y1="41.3636" x2="55.6247" y2="39.8726" gradientUnits="userSpaceOnUse">
<stop stop-color="#0793E3"/>
<stop offset="1" stop-color="#00D084"/>
</linearGradient>
</defs>
</svg>
