<svg width="61" height="60" viewBox="0 0 61 60" fill="none" xmlns="http://www.w3.org/2000/svg">
<path d="M54.6755 17.3735C53.0755 11.9485 48.5505 7.42354 43.1255 5.82354C39.0005 4.62354 36.1505 4.72354 34.1755 6.19854C31.8005 7.97354 31.5255 11.1735 31.5255 13.4485V19.6735C31.5255 25.8235 34.3255 28.9485 39.8255 28.9485H47.0005C49.2505 28.9485 52.4755 28.6735 54.2505 26.2985C55.7755 24.3485 55.9005 21.4985 54.6755 17.3735Z" fill="url(#paint0_linear_1_7025)"/>
<path d="M47.7725 33.4027C47.1225 32.6527 46.1725 32.2277 45.1975 32.2277H36.2475C31.8475 32.2277 28.2725 28.6527 28.2725 24.2528V15.3028C28.2725 14.3278 27.8475 13.3778 27.0975 12.7278C26.3725 12.0778 25.3725 11.7778 24.4226 11.9028C18.5475 12.6528 13.1475 15.8778 9.62255 20.7278C6.07255 25.6027 4.77255 31.5527 5.89755 37.5027C7.52255 46.1027 14.3975 52.9777 23.0225 54.6027C24.3975 54.8777 25.7725 55.0027 27.1475 55.0027C31.6725 55.0027 36.0475 53.6027 39.7725 50.8777C44.6225 47.3527 47.8475 41.9527 48.5975 36.0777C48.7225 35.1027 48.4225 34.1277 47.7725 33.4027Z" fill="url(#paint1_linear_1_7025)"/>
<defs>
<linearGradient id="paint0_linear_1_7025" x1="31.5255" y1="22.4171" x2="55.5643" y2="21.7011" gradientUnits="userSpaceOnUse">
<stop stop-color="#0793E3"/>
<stop offset="1" stop-color="#00D084"/>
</linearGradient>
<linearGradient id="paint1_linear_1_7025" x1="5.50391" y1="43.2406" x2="48.7329" y2="41.9549" gradientUnits="userSpaceOnUse">
<stop stop-color="#0793E3"/>
<stop offset="1" stop-color="#00D084"/>
</linearGradient>
</defs>
</svg>
