<svg width="61" height="60" viewBox="0 0 61 60" fill="none" xmlns="http://www.w3.org/2000/svg">
<g clip-path="url(#clip0_1_7016)">
<path d="M60.5 0H0.5V60H60.5V0Z" fill="white"/>
<path fill-rule="evenodd" clip-rule="evenodd" d="M30.5 5C25.8107 5 21.872 5.248 18.6252 5.96955C15.35 6.69743 12.6279 7.94 10.5339 10.0339C8.44 12.1279 7.19743 14.85 6.46955 18.1252C5.748 21.372 5.5 25.3107 5.5 30C5.5 34.6893 5.748 38.628 6.46955 41.8748C7.19743 45.15 8.44 47.872 10.5339 49.966C12.6279 52.06 15.35 53.3025 18.6252 54.0305C21.872 54.752 25.8107 55 30.5 55C35.1893 55 39.128 54.752 42.3748 54.0305C45.65 53.3025 48.372 52.06 50.466 49.966C52.56 47.872 53.8025 45.15 54.5305 41.8748C55.252 38.628 55.5 34.6893 55.5 30C55.5 25.3107 55.252 21.372 54.5305 18.1252C53.8025 14.85 52.56 12.1279 50.466 10.0339C48.372 7.94 45.65 6.69743 42.3748 5.96955C39.128 5.248 35.1893 5 30.5 5ZM30.5 15C31.8808 15 33 16.1193 33 17.5V17.7373C34.4872 18.0306 35.6788 18.5605 36.5893 19.1228C37.2675 19.5416 37.777 19.9699 38.1318 20.3135C38.4315 20.6038 38.599 20.7966 38.7588 21.0118L38.7605 21.014C39.5812 22.1244 39.3463 23.6898 38.236 24.5105C37.1405 25.3202 35.6003 25.1005 34.7712 24.028C34.7062 23.9529 34.1817 23.3475 33 22.9123V27.7535C36.9885 28.5983 39.5625 31.4648 39.5625 35C39.5625 38.5353 36.9885 41.4017 33 42.2465V42.5C33 43.8807 31.8808 45 30.5 45C29.1192 45 28 43.8807 28 42.5V42.2127C26.6863 41.9087 25.5787 41.4065 24.7284 40.9205C23.9275 40.463 23.1379 39.9225 22.4823 39.2677C21.506 38.2915 21.506 36.7085 22.4823 35.7323C23.454 34.7605 25.0264 34.756 26.0037 35.7183C26.0475 35.7598 26.8587 36.4875 28 36.9725V32.2465C24.0116 31.4017 21.4375 28.5352 21.4375 25C21.4375 21.4647 24.0116 18.5981 28 17.7535V17.5C28 16.1193 29.1192 15 30.5 15Z" fill="url(#paint0_linear_1_7016)"/>
<path fill-rule="evenodd" clip-rule="evenodd" d="M33.313 33.1143C33.1705 33.0315 33 33.1405 33 33.3055V36.6948C33 36.8598 33.1705 36.9688 33.313 36.8858C34.3 36.312 34.5622 35.475 34.5622 35C34.5622 34.5253 34.3 33.688 33.313 33.1143Z" fill="url(#paint1_linear_1_7016)"/>
<path fill-rule="evenodd" clip-rule="evenodd" d="M28 23.3492C28 23.1637 27.8083 23.0412 27.6493 23.1366C26.6933 23.7095 26.4375 24.5313 26.4375 25C26.4375 25.4688 26.6933 26.2905 27.6493 26.8635C27.8083 26.9588 28 26.8363 28 26.6508V23.3492Z" fill="url(#paint2_linear_1_7016)"/>
</g>
<defs>
<linearGradient id="paint0_linear_1_7016" x1="5.5" y1="41.3636" x2="55.6247" y2="39.8726" gradientUnits="userSpaceOnUse">
<stop stop-color="#0793E3"/>
<stop offset="1" stop-color="#00D084"/>
</linearGradient>
<linearGradient id="paint1_linear_1_7016" x1="33" y1="35.8702" x2="34.5673" y2="35.8511" gradientUnits="userSpaceOnUse">
<stop stop-color="#0793E3"/>
<stop offset="1" stop-color="#00D084"/>
</linearGradient>
<linearGradient id="paint2_linear_1_7016" x1="26.4375" y1="25.8621" x2="28.005" y2="25.8429" gradientUnits="userSpaceOnUse">
<stop stop-color="#0793E3"/>
<stop offset="1" stop-color="#00D084"/>
</linearGradient>
<clipPath id="clip0_1_7016">
<rect width="60" height="60" fill="white" transform="translate(0.5)"/>
</clipPath>
</defs>
</svg>
