<svg width="61" height="60" viewBox="0 0 61 60" fill="none" xmlns="http://www.w3.org/2000/svg">
<path fill-rule="evenodd" clip-rule="evenodd" d="M15.5 17.5C15.5 12.786 15.5 10.4289 16.9645 8.96447C18.4289 7.5 20.786 7.5 25.5 7.5H35.5C40.214 7.5 42.571 7.5 44.0355 8.96447C45.5 10.4289 45.5 12.786 45.5 17.5V42.5C45.5 47.214 45.5 49.571 44.0355 51.0355C42.571 52.5 40.214 52.5 35.5 52.5H25.5C20.786 52.5 18.4289 52.5 16.9645 51.0355C15.5 49.571 15.5 47.214 15.5 42.5V17.5ZM24.25 12.5C24.25 11.8096 24.8097 11.25 25.5 11.25H35.5C36.1903 11.25 36.75 11.8096 36.75 12.5C36.75 13.1904 36.1903 13.75 35.5 13.75H25.5C24.8097 13.75 24.25 13.1904 24.25 12.5ZM30.5 47.5C31.8808 47.5 33 46.3807 33 45C33 43.6193 31.8808 42.5 30.5 42.5C29.1193 42.5 28 43.6193 28 45C28 46.3807 29.1193 47.5 30.5 47.5Z" fill="url(#paint0_linear_1_7032)"/>
<defs>
<linearGradient id="paint0_linear_1_7032" x1="15.5" y1="40.2273" x2="45.5896" y2="39.6306" gradientUnits="userSpaceOnUse">
<stop stop-color="#0793E3"/>
<stop offset="1" stop-color="#00D084"/>
</linearGradient>
</defs>
</svg>
