<svg id="Layer_1" data-name="Layer 1" xmlns="http://www.w3.org/2000/svg" xmlns:xlink="http://www.w3.org/1999/xlink" viewBox="0 0 584.28 638.39"><defs><style>.cls-1{fill:url(#linear-gradient);}.cls-2{fill:url(#linear-gradient-2);}.cls-3{fill:url(#linear-gradient-3);}.cls-4{fill:url(#linear-gradient-4);}.cls-5{fill:url(#linear-gradient-5);}</style><linearGradient id="linear-gradient" x1="7.01" y1="61.39" x2="536.59" y2="581.25" gradientUnits="userSpaceOnUse"><stop offset="0" stop-color="#27bcff"/><stop offset="0.12" stop-color="#2fbdf0"/><stop offset="0.35" stop-color="#44bfc9"/><stop offset="0.66" stop-color="#65c28a"/><stop offset="0.99" stop-color="#8dc63f"/></linearGradient><linearGradient id="linear-gradient-2" x1="127.62" y1="-61.47" x2="657.2" y2="458.39" xlink:href="#linear-gradient"/><linearGradient id="linear-gradient-3" x1="30.87" y1="37.08" x2="560.45" y2="556.94" xlink:href="#linear-gradient"/><linearGradient id="linear-gradient-4" x1="-69.85" y1="139.68" x2="459.73" y2="659.55" xlink:href="#linear-gradient"/><linearGradient id="linear-gradient-5" x1="54.36" y1="13.15" x2="583.94" y2="533.01" xlink:href="#linear-gradient"/></defs><path class="cls-1" d="M490.6,414.4c13.75,16.52,31.54,37.91,47.24,56.69L381.62,600.26A108.64,108.64,0,0,1,263.14,615.1,107.64,107.64,0,0,1,229,588.7l.17.24L43.38,377.71l-.14-.1a108.51,108.51,0,0,1,11-153.23L208.84,89.69l.09,0a108.56,108.56,0,0,1,153,10.66v0l47.9,53.92L351.88,200l-45.25-50.91-.17-.2a34.16,34.16,0,0,0-10.94-8.51,35.41,35.41,0,0,0-26.26-1.88,34.91,34.91,0,0,0-12.05,6.85L102.53,280a35.19,35.19,0,0,0-8.46,11A34.88,34.88,0,0,0,99,329.29l185.64,211,.09.1a34,34,0,0,0,10.94,8.51,35.41,35.41,0,0,0,26.26,1.88A34.38,34.38,0,0,0,334,544l.3-.26Z"/><path class="cls-2" d="M573.69,352.37a107.66,107.66,0,0,0-21.25-37.58l-.34-.44L481,237l103.27-83.65L537.63,96.24l-263,220.05,46.66,57.11L424.88,285l139,156.15a75.45,75.45,0,0,0,3.94-7.21,108.69,108.69,0,0,0,5.86-81.54Z"/><path class="cls-3" d="M220.21,127,121.94,13.53a39.16,39.16,0,0,0-55.25-4l-53.16,46a39.16,39.16,0,0,0-4,55.25L116.12,233.9,228.5,136.58ZM28.72,94.26a13.82,13.82,0,0,1,1.4-19.5l53.17-46a13.81,13.81,0,0,1,19.49,1.4l90,103.89-74.06,64.14Z"/><path class="cls-4" d="M378.2,626.82a33.9,33.9,0,1,0,51-44.67Z"/><path class="cls-5" d="M515.27,512.91a33.91,33.91,0,0,0,51-44.67Z"/></svg>