<svg xmlns="http://www.w3.org/2000/svg" viewBox="0 0 500 243.57"><defs><style>.cls-1{fill:#fff;}.cls-2{fill:#f9a806;}</style></defs><g id="Capa_2" data-name="Capa 2"><g id="Capa_1-2" data-name="Capa 1"><path class="cls-1" d="M499,231.6,419,93.09a8.07,8.07,0,0,0-6.93-4,8,8,0,0,0-6.9,4l-50.66,87.73L313.65,110V51.47H293V74.21L255.11,8.64a8,8,0,0,0-13.83,0L155.4,157.41l-48.83-84.6a8,8,0,0,0-13.83,0L1.08,231.6a8,8,0,0,0,6.9,12H492a8,8,0,0,0,6.93-12Zm-477.14-4L99.64,92.77l46.53,80.61-31.3,54.23Zm250.22,0V168.52a19.79,19.79,0,0,0-19.77-19.8H245a19.79,19.79,0,0,0-19.77,19.8v59.09H133.3l22.1-38.3,9.2-15.93L248.18,28.61,293,106.15l17.69,30.63,34.66,60,9.19,15.93,8.6,14.89Zm109.48,0-17.82-30.86,48.36-83.7,66.14,114.56Z"/><rect class="cls-1" x="397.1" y="178.36" width="14.43" height="14.43"/><rect class="cls-1" x="414.33" y="178.36" width="14.43" height="14.43"/><rect class="cls-1" x="397.1" y="195.19" width="14.43" height="14.43"/><rect class="cls-1" x="414.33" y="195.19" width="14.43" height="14.43"/><path class="cls-2" d="M162.54,0a32.64,32.64,0,1,0,32.64,32.64A32.68,32.68,0,0,0,162.54,0Zm0,49.31a16.67,16.67,0,1,1,16.67-16.67A16.68,16.68,0,0,1,162.54,49.31Z"/><path class="cls-1" d="M95.1,160.85v19.31h-19A21.4,21.4,0,0,1,95.1,160.85Z"/><path class="cls-1" d="M76.1,184.25h19v19.31A21.38,21.38,0,0,1,76.1,184.25Z"/><path class="cls-1" d="M99.89,184.25h19a21.45,21.45,0,0,1-19,19.31Z"/><path class="cls-1" d="M118.93,180.16h-19V160.85A21.45,21.45,0,0,1,118.93,180.16Z"/></g></g></svg>
