<?xml version="1.0" encoding="iso-8859-1"?>
<!-- Uploaded to: SVG Repo, www.svgrepo.com, Generator: SVG Repo Mixer Tools -->
<svg fill="#000000" height="800px" width="800px" version="1.1" id="Layer_1" xmlns="http://www.w3.org/2000/svg" xmlns:xlink="http://www.w3.org/1999/xlink" 
	 viewBox="0 0 367.877 367.877" xml:space="preserve">
<g>
	<g>
		<path d="M347.553,259.451c0.184,0,0.328-0.026,0.512-0.026v-3.896h-21.837c0.256-2.181,0.773-4.076,1.464-5.796H39.785
			c0.824,1.756,1.429,3.681,1.751,5.796H19.807v3.896c0.154,0,0.276,0.02,0.425,0.026H347.553z"/>
		<path d="M41.93,355.026v1.034c0,8.253,6.769,11.817,22.656,11.817h238.71c15.887,0,22.656-2.862,22.656-11.817v-1.034
			c0-4.28,0.589-7.798,1.766-10.732H39.785C41.224,347.356,41.93,350.95,41.93,355.026z"/>
		<path d="M327.759,325.571H39.724c0.701,1.5,1.275,3.098,1.613,4.859H19.812v3.896c0.128,0,0.23,0.026,0.358,0.026h327.46
			c0.159,0,0.282-0.026,0.44-0.026v-3.896h-21.663C326.689,328.622,327.171,327.045,327.759,325.571z"/>
		<path d="M215.739,133.202h29.875c13.496,0,24.433-10.941,24.433-24.433V42.67c0-13.496-10.941-24.433-24.433-24.433h-29.88V0
			h-66.918H81.897v151.526h133.842V133.202z M215.734,36.562h29.88c3.369,0,6.108,2.739,6.108,6.108v66.094
			c0,3.369-2.739,6.108-6.108,6.108h-29.88V36.562z"/>
		<path d="M347.548,202.337c0.184,0,0.333-0.026,0.522-0.026v-3.896h-21.663c0.282-1.807,0.763-3.384,1.352-4.859H39.724
			c0.701,1.5,1.275,3.098,1.613,4.859H19.812v3.896c0.154,0,0.276,0.021,0.43,0.026H347.548z"/>
		<path d="M327.759,288.123H39.724c0.701,1.5,1.275,3.098,1.613,4.859H19.812v3.896c0.154,0,0.276,0.02,0.425,0.026h327.322
			c0.184,0,0.328-0.026,0.512-0.026v-3.896h-21.663C326.689,291.174,327.171,289.592,327.759,288.123z"/>
		<path d="M327.759,174.833H39.724c0.701,1.5,1.275,3.098,1.613,4.859H19.812v3.896c0.154,0,0.276,0.021,0.425,0.026h327.322
			c0.184,0,0.328-0.026,0.512-0.026v-3.896h-21.663C326.689,177.884,327.171,176.302,327.759,174.833z"/>
		<path d="M327.759,212.28H39.724c0.701,1.5,1.275,3.098,1.613,4.859H19.812v3.896c0.154,0,0.276,0.02,0.425,0.026h327.322
			c0.184,0,0.328-0.026,0.512-0.026v-3.896h-21.663C326.689,215.337,327.171,213.755,327.759,212.28z"/>
		<path d="M19.812,160.963v3.896c0.154,0,0.276,0.02,0.425,0.026h327.322c0.184,0,0.328-0.026,0.512-0.026v-3.896H19.812z"/>
		<path d="M327.759,231.009H39.724c0.701,1.5,1.275,3.098,1.613,4.859H19.812v3.896c0.148,0,0.266,0.021,0.41,0.026h327.347
			c0.179,0,0.323-0.026,0.502-0.026v-3.896h-21.663C326.689,234.061,327.171,232.479,327.759,231.009z"/>
		<path d="M327.759,269.394H39.724c0.701,1.5,1.275,3.098,1.613,4.859H19.812v3.896c0.154,0,0.276,0.02,0.425,0.026h327.322
			c0.184,0,0.328-0.026,0.512-0.026v-3.896h-21.663C326.689,272.451,327.171,270.868,327.759,269.394z"/>
		<path d="M327.759,306.847H39.724c0.701,1.5,1.275,3.098,1.613,4.859H19.812v3.896c0.154,0,0.276,0.02,0.425,0.026h327.322
			c0.184,0,0.328-0.026,0.512-0.026v-3.896h-21.663C326.689,309.898,327.171,308.321,327.759,306.847z"/>
	</g>
</g>
</svg>